<?xml version="1.0" standalone="no"?><!DOCTYPE svg PUBLIC "-//W3C//DTD SVG 1.1//EN" "http://www.w3.org/Graphics/SVG/1.1/DTD/svg11.dtd"><svg t="1567128462565" class="icon" viewBox="0 0 1024 1024" version="1.1" xmlns="http://www.w3.org/2000/svg" p-id="1014" xmlns:xlink="http://www.w3.org/1999/xlink" width="200" height="200"><defs><style type="text/css"></style></defs><path d="M518.144 177.664L605.696 353.28c9.216 18.432 35.84 47.104 69.632 49.152l196.096 31.744h1.536L727.552 573.44c-20.48 20.48-28.16 55.808-28.16 72.704v2.56l0.512 2.56 31.744 198.144-163.328-93.696c-14.848-11.776-34.816-11.776-43.52-11.776-13.824 0-29.184 0-43.52 11.776L305.664 849.92l31.744-198.656 0.512-2.56v-2.56c0-28.672-10.24-54.784-28.16-72.704L163.84 433.664h1.024l196.608-31.744c33.28-1.536 60.416-30.72 69.632-49.152l87.04-175.104M881.152 425.984" fill="#FFCC01" p-id="1015"></path><path d="M518.144 134.144c-6.144 0-19.456 12.8-25.6 25.6l-89.6 179.2c-6.144 12.8-25.6 32.256-45.056 32.256l-198.656 31.744c-38.4 0-45.056 25.6-19.456 51.2l147.456 140.8c12.8 12.8 19.456 31.744 19.456 51.2L275.456 844.8c-4.608 23.04 4.096 39.424 21.504 39.424 6.656 0 14.336-2.56 23.04-7.68l179.2-96.256c6.144-6.144 12.8-6.144 25.6-6.144 6.144 0 19.456 0 25.6 6.144l166.4 96.256c8.704 5.12 16.896 7.68 23.04 7.68 17.408 0 26.112-16.384 21.504-39.424l-31.744-198.144c0-12.8 6.144-38.4 19.456-51.2L896 454.656c25.6-19.456 19.456-45.056-19.456-51.2l-198.656-31.744c-19.456 0-38.4-19.456-45.056-32.256l-89.6-179.2c-5.632-19.456-18.432-26.112-25.088-26.112z" fill="#FFCC01" p-id="1016"></path></svg>