<?xml version="1.0" standalone="no"?>
<!DOCTYPE svg PUBLIC "-//W3C//DTD SVG 1.1//EN" "http://www.w3.org/Graphics/SVG/1.1/DTD/svg11.dtd" >
<!--
2013-9-30: Created.
-->
<svg>
<metadata>
Created by iconfont
</metadata>
<defs>

<font id="iconfont" horiz-adv-x="1024" >
  <font-face
    font-family="iconfont"
    font-weight="500"
    font-stretch="normal"
    units-per-em="1024"
    ascent="896"
    descent="-128"
  />
    <missing-glyph />
    
    <glyph glyph-name="jiantouarrow502" unicode="&#59074;" d="M726.89664 392.73472c1.49504-1.96608 2.27328-4.32128 2.27328-6.66624 0-2.32448-0.72704-4.61824-2.21184-6.6048-2.94912-3.92192-8.18176-5.376-12.7488-3.584l-136.5504 53.94432 0.01024-316.1088c-0.01024-6.03136-4.90496-10.94656-10.9568-10.94656L457.29792 102.76864c-6.05184 0-10.93632 4.90496-10.94656 10.9568L446.35136 429.824l-136.54016-53.9648c-4.57728-1.78176-9.80992-0.31744-12.76928 3.62496-2.95936 3.92192-2.95936 9.33888 0.07168 13.24032l206.21312 268.2368c2.06848 2.70336 5.29408 4.28032 8.67328 4.28032 3.42016 0 6.61504-1.57696 8.69376-4.28032L726.89664 392.73472zM911.13472 384c0-220.07808-179.0464-399.14496-399.13472-399.14496S112.86528 163.92192 112.86528 384 291.92192 783.14496 512 783.14496 911.13472 604.07808 911.13472 384zM867.35872 384c0 195.9424-159.40608 355.35872-355.35872 355.35872S156.64128 579.9424 156.64128 384c0-195.96288 159.41632-355.35872 355.35872-355.35872C707.95264 28.64128 867.35872 188.03712 867.35872 384z"  horiz-adv-x="1024" />

    
    <glyph glyph-name="lease-resv-2home" unicode="&#58900;" d="M450.1 64h-341.7c-24.5 0-44.4 19.9-44.4 44.4v403.6h832v211.6c0 59.8-48.6 108.4-108.4 108.4h-83.6v64h-64v-64h-384v64h-64v-64h-83.6c-59.8 0-108.4-48.6-108.4-108.4v-615.2c0-59.8 48.6-108.4 108.4-108.4h341.7c17.7 0 32 14.3 32 32s-14.3 32-32 32zM64 723.6c0 24.5 19.9 44.4 44.4 44.4h83.6v-96h64v96h384v-96h64v96h83.6c24.5 0 44.4-19.9 44.4-44.4v-147.6h-768v147.6zM160 416h224v-64h-224v64zM160 224h224v-64h-224v64zM800 320h-64v-160h160v64h-96zM949 373c-48.4 48.4-112.6 75-181 75s-132.7-26.6-181-75c-48.4-48.4-75-112.6-75-181s26.6-132.7 75-181c48.4-48.4 112.6-75 181-75s132.7 26.6 181 75c48.4 48.4 75 112.6 75 181s-26.6 132.7-75 181zM768 0c-105.9 0-192 86.1-192 192s86.1 192 192 192 192-86.1 192-192-86.1-192-192-192z"  horiz-adv-x="1024" />

    
    <glyph glyph-name="xinjia" unicode="&#58905;" d="M1 560c0.974 8.73 1.84 17.474 2.938 26.188 7.083 56.204 27.291 107.203 61.519 152.374 31.505 41.576 70.671 73.925 119.342 93.379 86.992 34.772 170.71 26.894 250.519-21.841 29.004-17.712 53.474-40.691 74.47-67.385 0.916-1.164 1.886-2.287 3.159-3.826 5.050 5.983 9.797 11.896 14.844 17.543 43.37 48.524 96.561 80.353 160.776 92.082 63.172 11.538 123.353 1.548 179.659-29.443 53.205-29.283 92.877-71.916 120.814-125.594 20.805-39.973 32.040-82.592 35.141-127.544 3.856-55.909-7.121-108.91-30.076-159.688-0.696-1.541-2.955-3.366-4.503-3.382-20.496-0.21-40.995-0.121-61.493-0.087-0.464 0.001-0.928 0.241-1.71 0.458 4.435 9.2 9.001 18.207 13.166 27.396 17.949 39.596 27.192 81.021 25.091 124.616-3.214 66.685-26.805 124.9-74.068 172.554-36.268 36.565-80.158 58.743-131.631 64.004-58.483 5.979-110.608-10.77-156.586-46.982-25.732-20.267-46.077-45.166-61.636-73.956-5.432-10.051-13.206-16.77-24.851-17.72-13.543-1.106-23.458 4.893-29.886 16.714-9.349 17.191-20.312 33.259-33.455 47.769-33.79 37.301-74.812 62.371-124.592 71.569-60.902 11.252-116.687-2.065-166.154-38.896-54.563-40.625-85.784-95.854-97.003-162.635-10.54-62.735 2.059-121.421 31.434-177.079 31.978-60.589 71.836-115.574 117.819-166.278 66.052-72.832 138.267-139.162 213.248-202.561 26.202-22.154 53.076-43.513 79.688-65.18 6.015-4.896 6.18-4.886 12.241 0.113 34.827 28.724 69.614 57.498 104.418 86.251 0.853 0.704 1.74 1.366 3.133 2.456 0.107-2.082 0.244-3.504 0.245-4.926 0.013-22.998-0.069-45.997 0.095-68.995 0.024-3.394-1.15-5.508-3.669-7.54-23.080-18.618-45.859-37.618-69.183-55.927-26.143-20.521-56.936-20.12-83.171 0.461-66.233 51.956-130.048 106.737-191.488 164.28-51.72 48.439-101.447 98.787-146.341 153.719-38.723 47.382-71.987 98.346-98.598 153.465-18.769 38.881-30.223 79.908-32.733 123.215-0.114 1.964-0.613 3.906-0.932 5.859 0 10.333 0 20.667 0 31zM1014.726 236.064c0-18.362 0-35.795 0-53.705-54.735 0-109.168 0-164.193 0 0-54.883 0-109.29 0-164.175-19.272 0-37.953 0-57.171 0 0 54.601 0 109.015 0 163.978-54.933 0-109.336 0-164.197 0 0 18.076 0 35.605 0 53.603 54.49 0 108.915 0 163.951 0 0 55.006 0 109.556 0 164.519 19.161 0 37.715 0 56.96 0 0-54.544 0-109.089 0-164.219 55.227-0.001 109.772-0.001 164.65-0.001z"  horiz-adv-x="1025" />

    
    <glyph glyph-name="sousuo" unicode="&#59078;" d="M352.256 211.456c-7.68 0-14.848 3.072-20.48 8.704-58.368 58.368-82.432 141.312-64.512 222.208 3.584 15.872 19.456 25.6 34.816 22.016 15.872-3.584 25.6-18.944 22.016-34.816-13.824-60.928 4.608-123.904 48.64-167.936 11.264-11.264 11.264-30.208 0-41.472C367.104 214.528 359.936 211.456 352.256 211.456zM494.592 666.624c74.24 0 143.872-28.672 196.096-81.408 52.224-52.224 81.408-121.856 81.408-196.096 0-74.24-28.672-143.872-81.408-196.096-52.224-52.224-121.856-81.408-196.096-81.408-74.24 0-143.872 28.672-196.096 81.408-108.032 108.032-108.032 284.16 0 392.192C351.232 637.952 420.864 666.624 494.592 666.624M494.592 724.992c-86.016 0-172.032-32.768-237.568-98.304-131.072-131.072-131.072-343.552 0-474.624 65.536-65.536 151.552-98.304 237.568-98.304 86.016 0 172.032 32.768 237.568 98.304 131.072 131.072 131.072 343.552 0 475.136C666.624 692.224 580.608 724.992 494.592 724.992L494.592 724.992zM903.68-30.72c-7.68 0-14.848 3.072-20.48 8.704L706.56 154.112c-11.264 11.264-11.264 30.208 0 41.472 11.264 11.264 30.208 11.264 41.472 0l176.128-176.128c11.264-11.264 11.264-30.208 0-41.472C918.528-27.648 910.848-30.72 903.68-30.72z"  horiz-adv-x="1024" />

    
    <glyph glyph-name="shouji" unicode="&#58907;" d="M654.08 682.88l-284.16 0c-26.24 0-48-21.76-48-48L321.92 153.6c0-26.24 21.76-48 48-48l284.16 0c26.24 0 48 21.76 48 48l0 481.28C702.08 661.76 680.96 682.88 654.08 682.88zM670.08 153.6c0-8.96-7.04-16-16-16l-284.16 0c-8.96 0-16 7.04-16 16l0 481.28c0 8.96 7.04 16 16 16l284.16 0c8.96 0 16-7.04 16-16L670.08 153.6zM604.16 634.24l-183.68 0c-26.24 0-48-21.76-48-48l0-294.4c0-26.24 21.76-48 48-48l183.68 0c26.24 0 48 21.76 48 48l0 294.4C652.16 613.12 630.4 634.24 604.16 634.24zM620.16 291.84c0-8.96-7.04-16-16-16l-183.68 0c-8.96 0-16 7.04-16 16l0 294.4c0 8.96 7.04 16 16 16l183.68 0c8.96 0 16-7.04 16-16L620.16 291.84zM512.64 188.16m-32 0a5 5 0 1 0 64 0 5 5 0 1 0-64 0Z"  horiz-adv-x="1024" />

    
    <glyph glyph-name="jiantou1" unicode="&#58915;" d="M504.18688 816.80896c116.0704 0 221.18912-47.0528 297.26208-123.12576 76.07296-76.09856 123.15648-181.18656 123.15648-297.2928 0-116.10112-47.08352-221.18912-123.15648-297.26208-76.07296-76.07296-181.19168-123.12576-297.26208-123.12576-116.13184 0-221.19424 47.0528-297.2672 123.12576C130.85184 175.20128 83.712 280.2944 83.712 396.39552c0 116.10112 47.08352 221.18912 123.2128 297.2928C282.99264 769.75616 388.05504 816.80896 504.18688 816.80896L504.18688 816.80896zM299.4688 440.2944l184.51456 184.57088 0-505.62048c0-11.12576 9.07264-20.14208 20.20352-20.14208 11.12576 0 20.1728 9.01632 20.1728 20.14208L524.35968 624.86528l184.51456-184.57088c7.8592-7.8592 20.57728-7.8592 28.52864 0 7.8592 7.92064 7.8592 20.66432 0 28.52864l-218.6496 218.61888-0.31744 0.34816 0 0c-3.64032 3.64544-8.69888 5.92384-14.24896 5.92384-5.6064 0-10.60864-2.28352-14.24896-5.92384l0 0-0.37888-0.34816L270.97088 468.82304c-7.8592-7.86432-7.8592-20.608 0-28.52864C278.91712 432.4352 291.6096 432.4352 299.4688 440.2944L299.4688 440.2944zM772.92544 665.15968c-68.7616 68.7872-163.81952 111.30368-268.73856 111.30368-104.97536 0-199.97696-42.51648-268.76416-111.30368C166.66112 596.36736 124.0576 501.37088 124.0576 396.39552c0-104.94464 42.60352-199.97696 111.36-268.76416 68.7872-68.7616 163.79392-111.3344 268.76416-111.3344 104.91392 0 199.97696 42.5728 268.73856 111.3344 68.84352 68.7872 111.3344 163.81952 111.3344 268.76416C884.25472 501.37088 841.76896 596.36736 772.92544 665.15968z"  horiz-adv-x="1024" />

    
    <glyph glyph-name="shouji1" unicode="&#58886;" d="M771.508855 630.069336c0 73.008143-59.184667 132.19281-132.19281 132.192811H384.59283c-73.008143 0-132.19281-59.184667-132.192811-132.192811v-492.26461c0-73.008143 59.184667-132.19281 132.192811-132.192811h254.723215c73.008143 0 132.19281 59.184667 132.19281 132.192811V630.069336z m-33.788216-491.937991c0-53.962852-43.745501-97.708353-97.708352-97.708352H384.919449c-53.962852 0-97.708353 43.745501-97.708353 97.708352V629.742717c0 53.962852 43.745501 97.708353 97.708353 97.708352h255.092838c53.962852 0 97.708353-43.745501 97.708352-97.708352v-491.611372z m-224.575935-21.447326c-17.209465 0-31.208025-14.000608-31.208025-31.207s13.999584-31.207001 31.208025-31.207001c17.209465 0 31.208025 14.000608 31.208024 31.207001s-13.999584 31.207001-31.208024 31.207zM431.529781 676.256803c0 9.524181 7.720095 17.406051 17.242229 17.406051h126.445742c9.523157 0 17.242229-7.881869 17.242228-17.406051s-7.720095-17.406051-17.242228-17.40605H448.77201c-9.522134 0-17.242229 7.881869-17.242229 17.40605z m282.641496-64.341977c0 9.523157-7.720095 17.242229-17.242229 17.242228H324.932056c-9.523157 0-17.242229-7.720095-17.242229-17.242228v-448.788392c0-9.523157 7.720095-17.242229 17.242229-17.242229h371.996992c9.523157 0 17.242229 7.720095 17.242229 17.242229V611.914826z m-33.788216-431.21852h-337.882157v413.649671h337.882157v-413.649671z"  horiz-adv-x="1024" />

    
    <glyph glyph-name="chengyi_pc_key" unicode="&#58897;" d="M756.391103 573.000562c0 134.594441-110.122073 244.716514-244.716514 244.716514S266.958074 707.595003 266.958074 573.000562c0-116.240421 79.532381-208.008474 183.53713-238.598167v-312.013223l61.179385-61.179384 61.179384 61.179384v61.179385h61.179384V144.746918h-61.179384v61.179384h61.179384v61.179384h-61.179384v67.296709C676.857698 364.992087 756.391103 456.760141 756.391103 573.000562z m-428.253644 0c0 104.004749 79.532381 183.53713 183.53713 183.537129s183.53713-79.532381 183.537129-183.537129-79.532381-183.53713-183.537129-183.53713S328.137459 468.995813 328.137459 573.000562z"  horiz-adv-x="1024" />

    
    <glyph glyph-name="fenxiang" unicode="&#58977;" d="M763.255315 288.182764c-48.843426 0-91.870159-25.368807-116.607228-63.618091L431.183707 336.773289c5.009871 15.913226 7.716 32.839074 7.716 50.384373 0 19.209113-3.24674 37.671813-9.206777 54.87923l216.653111 106.021277c24.688947-38.507303 67.868239-64.077815 116.908251-64.077815 76.518022 0 138.771274 62.252228 138.771273 138.771274s-62.252228 138.772298-138.77025 138.772297-138.77025-62.252228-138.770249-138.771273c0-12.918361 1.780537-25.427168 5.097925-37.301167L411.654119 478.805638c-30.030557 46.004192-81.958949 76.475019-140.876382 76.475019-92.703601 0-168.122994-75.419393-168.122994-168.122995s75.419393-168.122994 168.122994-168.122994c60.590462 0 113.792567 32.222695 143.383877 80.427216l215.555506-112.256739a138.429296 138.429296 0 0 1-5.232054-37.794679c0-76.518022 62.252228-138.771274 138.770249-138.771274s138.771274 62.253252 138.771274 138.771274-62.253252 138.772298-138.771274 138.772298z m0 432.385748c53.936231 0 97.815861-43.879629 97.815861-97.81586s-43.879629-97.815861-97.815861-97.815861c-53.935207 0-97.814837 43.879629-97.814836 97.815861s43.879629 97.815861 97.814836 97.81586z m-492.478602-460.577407c-70.119763 0-127.167581 57.046795-127.167581 127.167581 0 70.119763 57.046795 127.167581 127.167581 127.167581s127.167581-57.046795 127.167581-127.167581c0-70.120786-57.046795-127.167581-127.167581-127.167581z m492.478602-208.395476c-53.935207 0-97.814837 43.879629-97.814836 97.815861s43.879629 97.815861 97.814836 97.815861c53.936231 0 97.815861-43.879629 97.815861-97.815861s-43.880653-97.815861-97.815861-97.815861z"  horiz-adv-x="1024" />

    
    <glyph glyph-name="bofangqi-suoping" unicode="&#59033;" d="M791.272727 477.090909h-23.272727v69.818182c0 141.963636-116.363636 256-256 256-141.963636 0-256-114.036364-256-256v-69.818182h-23.272727c-51.2 0-93.090909-41.890909-93.090909-93.090909v-325.818182c0-51.2 41.890909-93.090909 93.090909-93.090909h558.545454c51.2 0 93.090909 41.890909 93.090909 93.090909V384c0 51.2-41.890909 93.090909-93.090909 93.090909z m-488.727272 69.818182c0 116.363636 93.090909 209.454545 209.454545 209.454545s209.454545-93.090909 209.454545-209.454545v-69.818182H302.545455v69.818182z m535.272727-488.727273c0-25.6-20.945455-46.545455-46.545455-46.545454H232.727273c-25.6 0-46.545455 20.945455-46.545455 46.545454V384c0 25.6 20.945455 46.545455 46.545455 46.545455h558.545454c25.6 0 46.545455-20.945455 46.545455-46.545455v-325.818182zM512 302.545455c-25.6 0-46.545455-20.945455-46.545455-46.545455 0-16.290909 9.309091-32.581818 23.272728-39.563636v-53.527273c0-11.636364 9.309091-23.272727 23.272727-23.272727s23.272727 11.636364 23.272727 23.272727v53.527273c13.963636 6.981818 23.272727 23.272727 23.272728 39.563636 0 25.6-20.945455 46.545455-46.545455 46.545455z"  horiz-adv-x="1024" />

    
    <glyph glyph-name="dingwei" unicode="&#58906;" d="M879.9 704.3zM504.3 296.8c-85 0-154.5 69.5-154.5 154.5s69.5 154.5 154.5 154.5 154.5-69.5 154.5-154.5-69.5-154.5-154.5-154.5z m0 256.9c-57 0-102.4-46.4-102.4-102.4 0-57 46.4-102.4 102.4-102.4 57 0 102.4 46.4 102.4 102.4-0.1 56-45.4 102.4-102.4 102.4zM797.9 678.2c-4.8 6.8-9.7 13.5-14.5 20.3-1 1-1.9 2.9-3.9 3.9-5.8 6.8-11.6 12.6-17.4 19.3l-7.7 7.7c-4.8 4.8-9.7 8.7-14.5 13.5-1.9 1-2.9 1.9-2.9 2.9-11.6 8.7-27 6.8-35.7-4.8-5.8-7.7-6.8-17.4-2.9-26.1 1.9-3.9 3.9-6.8 7.7-9.7 1-1 1.9-1.9 3.9-2.9 1.9-1.9 4.8-3.9 8.7-7.7l11.6-11.6c2.9-2.9 5.8-6.8 9.7-9.7 1.9-2.9 4.8-5.8 6.8-8.7 42.5-53.1 68.6-119.7 68.6-193.1 0-148.7-238.5-406.6-306.1-473.2-100.4 100.4-311 339-311 473.2-1.9 170 136.2 309 306.1 309 9.7 0 18.3-1 28-1h4.8c17.4-1.9 34.8-5.8 51.2-10.6 5.8-1.9 7.7-2.9 14.5-4.8h1.9c12.6-3.9 27 1.9 31.9 14.5 4.8 13.5-1 28-14.5 32.8-6.8 2.9-14.5 4.8-21.2 7.7-20.3 6.8-36.7 8.7-57 10.6-1.9 0-3.9 0-5.8 1-2.9 0-8.7 1-8.7 0-8.7 1-16.4 1-25.1 1-198 0-360.2-161.3-360.2-360.2 0-193.1 330.3-513.8 343.8-527.3 4.8-4.8 11.6-6.8 17.4-6.8 3.9 0 7.7 1 11.6 2.9 14.5 6.8 346.7 335.1 346.7 531.1 0.8 77.4-24.3 148.9-65.8 206.8z"  horiz-adv-x="1024" />

    
    <glyph glyph-name="xing" unicode="&#58880;" d="M518.144 718.336L605.696 542.72c9.216-18.432 35.84-47.104 69.632-49.152l196.096-31.744h1.536L727.552 322.56c-20.48-20.48-28.16-55.808-28.16-72.704v-2.56l0.512-2.56 31.744-198.144-163.328 93.696c-14.848 11.776-34.816 11.776-43.52 11.776-13.824 0-29.184 0-43.52-11.776L305.664 46.08l31.744 198.656 0.512 2.56v2.56c0 28.672-10.24 54.784-28.16 72.704L163.84 462.336h1.024l196.608 31.744c33.28 1.536 60.416 30.72 69.632 49.152l87.04 175.104M881.152 470.016M518.144 761.856c-6.144 0-19.456-12.8-25.6-25.6l-89.6-179.2c-6.144-12.8-25.6-32.256-45.056-32.256l-198.656-31.744c-38.4 0-45.056-25.6-19.456-51.2l147.456-140.8c12.8-12.8 19.456-31.744 19.456-51.2L275.456 51.2c-4.608-23.04 4.096-39.424 21.504-39.424 6.656 0 14.336 2.56 23.04 7.68l179.2 96.256c6.144 6.144 12.8 6.144 25.6 6.144 6.144 0 19.456 0 25.6-6.144l166.4-96.256c8.704-5.12 16.896-7.68 23.04-7.68 17.408 0 26.112 16.384 21.504 39.424l-31.744 198.144c0 12.8 6.144 38.4 19.456 51.2L896 441.344c25.6 19.456 19.456 45.056-19.456 51.2l-198.656 31.744c-19.456 0-38.4 19.456-45.056 32.256l-89.6 179.2c-5.632 19.456-18.432 26.112-25.088 26.112z"  horiz-adv-x="1024" />

    
    <glyph glyph-name="yuyue" unicode="&#59276;" d="M469.8 28.5H95.5c-16.5 0-30 13.5-30 30v619c0 16.5 13.5 30 30 30h686.6c16.5 0 30-13.5 30-30V431c0-11-9-20-20-20s-20 9-20 20V667.5H105.5v-599h364.3c11 0 20-9 20-20s-8.9-20-20-20zM762.4-23.3C655.2-23.3 568 63.9 568 171s87.2 194.4 194.4 194.4S956.7 278.2 956.7 171s-87.1-194.3-194.3-194.3z m0 348.7C677.3 325.4 608 256.2 608 171s69.2-154.4 154.4-154.4S916.7 85.9 916.7 171s-69.2 154.4-154.3 154.4zM269.3 776.5c-0.3 10.8-9.1 19.4-20 19.4s-19.7-8.7-20-19.4v-177.4c0-11 9-20 20-20s20 9 20 20V776.5zM662.4 776.5c-0.3 10.8-9.1 19.4-20 19.4s-19.7-8.7-20-19.4v-177.4c0-11 9-20 20-20s20 9 20 20V776.5zM98 513.6h694.1v-40H98zM403 316.5H168.2c-11 0-20-9-20-20s9-20 20-20H403c11 0 20 9 20 20s-9 20-20 20zM403 201.4H168.2c-11 0-20-9-20-20s9-20 20-20H403c11 0 20 9 20 20s-9 20-20 20zM872.4 174.6H771.7v92c0 8.3-6.7 15-15 15s-15-6.7-15-15v-121.7h9v-0.2h121.7c8.3 0 15 6.7 15 15 0 8.2-6.7 14.9-15 14.9z"  horiz-adv-x="1024" />

    
    <glyph glyph-name="jiantou2" unicode="&#59077;" d="M346.524 791.562c-12.258 12.257-30.644 12.257-42.901 0s-12.258-30.644 0-42.902L668.283 384l-364.66-364.66c-12.258-12.258-12.258-30.644 0-42.902 6.128-6.128 15.321-9.193 21.45-9.193s15.322 3.065 21.45 9.193L732.636 362.55c12.257 12.258 12.257 30.644 0 42.902L346.524 791.56z"  horiz-adv-x="1024" />

    
    <glyph glyph-name="zengzhifuwu" unicode="&#58884;" d="M906.125359 555.773202c-8.213056-3.606131-17.727757 0.100284-21.63474 8.213055-5.308913 11.017938-11.217483 21.834284-17.528212 32.351826-41.165562 68.608587-102.663194 124.898615-174.376492 159.853731-8.012488 3.90596-11.718903 13.3214-8.112772 21.534456 3.705392 8.513908 13.821797 12.520151 22.235421 8.413623 78.524424-37.960567 143.527904-97.454566 188.699709-172.773995a433.024298 433.024298 0 0 0 19.13071-35.556821c4.106528-8.314363 0.100284-18.330484-8.413624-22.035875z m36.057217-155.246807c-9.114588 0-16.526395-7.411807-16.526395-16.526395 0-228.062206-185.594999-413.657204-413.657204-413.657204S98.342796 155.937794 98.342796 384 283.937794 797.657204 512 797.657204c9.114588 0 16.526395 7.411807 16.526395 16.526396s-7.411807 16.526395-16.526395 16.526395C265.708618 830.709995 65.291029 630.291382 65.291029 384.001023S265.709641-62.707948 512-62.707948 958.708971 137.708618 958.708971 384c0 9.114588-7.411807 16.526395-16.526395 16.526395zM596.268242 796.543847c0-9.100262 7.377014-16.477276 16.477277-16.477276s16.477276 7.377014 16.477276 16.477276-7.377014 16.477276-16.477276 16.477277-16.477276-7.377014-16.477277-16.477277zM909.73456 483.077529c0-9.100262 7.377014-16.477276 16.477276-16.477276s16.477276 7.377014 16.477277 16.477276-7.377014 16.477276-16.477277 16.477277-16.477276-7.377014-16.477276-16.477277zM508.687558 566.171016a18.876929 18.876929 0 0 0 3.731998-3.14462c7.192819 7.597025 19.182898 7.924483 26.779923 0.731664a18.951631 18.951631 0 0 0 2.752693-3.270487l71.397097-107.314121 120.725572 34.798551c10.053983 2.894933 20.550035-2.908236 23.444969-12.96222 0.813528-2.824325 0.957815-5.8001 0.422625-8.689916L699.464579 151.084253a18.944468 18.944468 0 0 0-18.621103-15.495926H343.160617a18.943444 18.943444 0 0 0-18.621103 15.495926L266.061658 466.32089c-1.910513 10.286274 4.878101 20.173458 15.164375 22.084995a18.925025 18.925025 0 0 0 8.609075-0.394996l123.320676-34.855856 69.332065 107.370403c5.67014 8.792247 17.394159 11.322883 26.186406 5.652743l0.013303-0.007163zM351.893512 211.363128l7.008624-37.886889h306.180378l50.009997 269.601274-104.585986-30.138414a18.943444 18.943444 0 0 0-21.026896 7.69117l-77.231989 116.103298-74.826196-115.876124a18.944468 18.944468 0 0 0-21.084201-7.956206l-107.46557 30.365588 35.992749-194.016809h261.8528c10.462283 0 18.943444-8.481162 18.943444-18.943444s-8.481162-18.943444-18.943444-18.943444h-254.82371zM512.002047 533.398612c-31.385824 0-56.830333 25.443485-56.830333 56.830333s25.443485 56.830333 56.830333 56.830333 56.830333-25.443485 56.830333-56.830333-25.443485-56.830333-56.830333-56.830333z m0 37.886888c10.462283-0.00614 18.948561 8.469905 18.9547 18.932188s-8.469905 18.948561-18.932188 18.954701h-0.022512c-10.462283-0.00614-18.938328-8.492418-18.932188-18.954701 0.007163-10.453073 8.479115-18.926048 18.932188-18.932188z"  horiz-adv-x="1024" />

    
    <glyph glyph-name="jiantou3" unicode="&#59087;" d="M278.14 776.818l393.02-393.02-393.02-393.02c-12.258-12.259-12.432-32.893 0.187-45.511 12.708-12.708 32.996-12.704 45.512-0.188l411.66 411.66c7.12 7.12 10.164 17.066 8.991 26.625 1.5 9.755-1.51 20.01-8.99 27.49L323.839 822.515c-12.258 12.259-32.892 12.433-45.512-0.187-12.707-12.707-12.702-32.995-0.187-45.51z"  horiz-adv-x="1024" />

    
    <glyph glyph-name="gengduo" unicode="&#58932;" d="M111.3 495.3C49.9 495.3 0 445.4 0 384s49.9-111.3 111.3-111.3S222.6 322.6 222.6 384s-49.9 111.3-111.3 111.3z m0-178.1c-36.8 0-66.8 30-66.8 66.8s30 66.8 66.8 66.8 66.8-30 66.8-66.8-30-66.8-66.8-66.8zM912.7 495.3c-61.4 0-111.3-49.9-111.3-111.3s49.9-111.3 111.3-111.3S1024 322.6 1024 384s-49.9 111.3-111.3 111.3z m0-178.1c-36.8 0-66.8 30-66.8 66.8s30 66.8 66.8 66.8 66.8-30 66.8-66.8-30-66.8-66.8-66.8zM512 495.3c-61.4 0-111.3-49.9-111.3-111.3S450.6 272.7 512 272.7 623.3 322.6 623.3 384 573.4 495.3 512 495.3z m0-178.1c-36.8 0-66.8 30-66.8 66.8s30 66.8 66.8 66.8 66.8-30 66.8-66.8-30-66.8-66.8-66.8z"  horiz-adv-x="1024" />

    
    <glyph glyph-name="youjiantou" unicode="&#58882;" d="M510.247-63.053c238.62699999 0 432.77 196.19999999 432.77 437.351 0 241.153-194.143 437.353-432.77 437.353-238.62699999 0-432.772-196.202-432.772-437.35300001 0-241.15 194.143-437.351 432.772-437.35099999z m0 820.035c208.804 0 378.675-171.665 378.675-382.684 0-211.013-169.871-382.68-378.675-382.68S131.57 163.28499999999997 131.57 374.298c0 211.02000001 169.871 382.684 378.677 382.684z m-216.385-410.01700001L661.334 346.96500000000003 545.218 229.62c-10.563-10.677-10.563-27.976 0-38.654a26.849 26.849 0 0 1 38.251 1e-8l162.288 164.00999999c10.567 10.675 10.567 27.975 0 38.651l-162.288 164.012c-5.283 5.33700001-12.205 8.004-19.12399999 8.004-6.924 0-13.841-2.667-19.12700001-8.004-10.563-10.67900001-10.563-27.974 0-38.654l116.116-117.35-367.472 0c-14.953 0-27.047-12.225-27.047-27.336 0-15.107 12.092-27.333 27.047-27.333z"  horiz-adv-x="1024" />

    
    <glyph glyph-name="zuojiantou" unicode="&#58888;" d="M513.753 831.053c-238.627 0-432.77-196.2-432.77-437.351 0-241.153 194.143-437.353 432.77-437.353 238.627 0 432.772 196.202 432.772 437.353 0 241.15-194.143 437.351-432.772 437.351z m0-820.035c-208.804 0-378.675 171.665-378.675 382.684 0 211.013 169.871 382.68 378.675 382.68S892.43 604.715 892.43 393.702c0-211.02-169.871-382.684-378.677-382.684z m216.385 410.017H362.666L478.782 538.38c10.563 10.677 10.563 27.976 0 38.654a26.849 26.849 0 0 1-38.251 0l-162.288-164.01c-10.567-10.675-10.567-27.975 0-38.651l162.288-164.012c5.283-5.337 12.205-8.004 19.124-8.004 6.924 0 13.841 2.667 19.127 8.004 10.563 10.679 10.563 27.974 0 38.654l-116.116 117.35h367.472c14.953 0 27.047 12.225 27.047 27.336 0 15.107-12.092 27.333-27.047 27.333z"  horiz-adv-x="1024" />

    
    <glyph glyph-name="changetool" unicode="&#58881;" d="M929.792 656.896l-384.512 217.088c-9.728 6.144-19.968 8.192-31.744 8.192-11.776 0-22.016-2.048-31.744-8.192L97.28 656.896c-19.968-11.776-31.744-31.744-31.744-55.808v-434.176c0-22.016 11.776-44.032 31.744-55.808l382.464-217.088c9.728-6.144 22.016-8.192 31.744-8.192 11.776 0 22.016 2.048 31.744 8.192l382.464 217.088c19.968 11.776 31.744 31.744 31.744 55.808v434.176c4.096 22.016-7.68 44.032-27.648 55.808z m-27.648-492.032l-378.368-219.136c-2.048-2.048-8.192-6.144-9.728-6.144-2.048 0-8.192 4.096-9.728 6.144l-378.88 219.136v438.272l378.368 219.136c2.048 0 8.192 6.144 9.728 6.144 2.048 0 8.192-4.096 9.728-6.144l378.368-219.136v-438.272zM333.312 419.84h357.376c19.968 0 35.84 15.872 35.84 35.84s-15.872 35.84-35.84 35.84h-270.336l44.544 44.544c14.336 14.336 14.336 37.888 0 52.224-14.336 14.336-37.888 14.336-52.224 0L308.224 483.328c-8.704-8.704-12.288-20.992-10.24-32.256 2.048-17.408 17.408-31.232 35.328-31.232z m361.984-71.68c-3.584 0.512-7.68 1.024-11.264 0.512h-350.72c-19.968 0-35.84-15.872-35.84-35.328 0-19.456 15.872-35.328 35.84-35.328h269.312l-44.544-44.544c-14.336-14.336-14.336-37.888 0-52.736 14.336-14.336 37.888-14.336 52.224 0l104.448 104.96c3.584 3.584 6.144 7.68 7.68 11.776 2.56 4.608 3.584 10.24 3.584 15.872 0.512 17.408-12.8 32.256-30.72 34.816z m0 0"  horiz-adv-x="1024" />

    
    <glyph glyph-name="jiantou" unicode="&#58896;" d="M301.568 359.68c-7.168 0-14.336 2.816-19.968 8.192-11.008 11.008-11.008 28.928 0 39.936L702.464 828.416c11.008 11.008 28.928 11.008 39.936 0 11.008-11.008 11.008-28.928 0-39.936L321.536 367.872c-5.376-5.376-12.8-8.192-19.968-8.192zM722.432-68.864c-7.168 0-14.336 2.816-19.968 8.192L281.6 360.192c-11.008 11.008-11.008 28.928 0 39.936 11.008 11.008 28.928 11.008 39.936 0L742.4-20.736c11.008-11.008 11.008-28.928 0-39.936-5.632-5.376-12.8-8.192-19.968-8.192z"  horiz-adv-x="1024" />

    
    <glyph glyph-name="fenxiang1" unicode="&#58923;" d="M441.018182 235.054545l114.036363-74.472727c32.581818 48.872727 90.763636 83.781818 155.927273 83.781818 102.4 0 186.181818-83.781818 186.181818-186.181818s-83.781818-186.181818-186.181818-186.181818-186.181818 83.781818-186.181818 186.181818c0 20.945455 4.654545 41.890909 9.309091 60.509091L410.763636 197.818182c-41.890909-44.218182-102.4-72.145455-167.563636-72.145455-128 0-232.727273 104.727273-232.727273 232.727273s104.727273 232.727273 232.727273 232.727273c76.8 0 144.290909-37.236364 186.181818-93.090909l223.418182 139.636363c-9.309091 20.945455-13.963636 46.545455-13.963636 69.818182 0 102.4 83.781818 186.181818 186.181818 186.181818s186.181818-83.781818 186.181818-186.181818-83.781818-186.181818-186.181818-186.181818c-60.509091 0-116.363636 30.254545-148.945455 74.472727l-221.090909-139.636363c13.963636-30.254545 23.272727-62.836364 23.272727-100.072728 0-41.890909-13.963636-83.781818-37.236363-121.018182zM827.345455 570.181818c76.8 0 139.636364 62.836364 139.636363 139.636364s-62.836364 139.636364-139.636363 139.636363-139.636364-62.836364-139.636364-139.636363 62.836364-139.636364 139.636364-139.636364z m-116.363637-651.636363c76.8 0 139.636364 62.836364 139.636364 139.636363s-62.836364 139.636364-139.636364 139.636364-139.636364-62.836364-139.636363-139.636364 62.836364-139.636364 139.636363-139.636363zM245.527273 174.545455c102.4 0 186.181818 83.781818 186.181818 186.181818s-83.781818 186.181818-186.181818 186.181818-186.181818-83.781818-186.181818-186.181818 83.781818-186.181818 186.181818-186.181818z"  horiz-adv-x="1024" />

    
    <glyph glyph-name="change" unicode="&#58883;" d="M697.6 457.216v-124.416h25.6v-45.824h-102.4c25.6-39.296 57.6-72.021333 102.4-91.690667l-19.2-39.296c-57.6 32.725333-96 72.021333-121.6 124.416-19.2-45.824-64-91.690667-121.6-124.416l-32 39.296c51.2 26.197333 89.6 58.922667 108.8 98.218667h-96v39.296h25.6v117.888l-19.2 32.725333v-26.197333h-44.8v-72.021333c12.8 6.570667 32 13.098667 44.8 19.626666v-45.824c-19.2-13.098667-32-19.626667-44.8-26.197333v-124.416c0-32.725333-12.8-45.824-44.8-45.824h-38.4l-12.8 45.824h32c12.8 0 12.8 6.528 12.8 19.626667v85.12l-38.4-19.626667-12.8 52.394667c19.2 6.570667 38.4 6.570667 57.6 19.626666v91.690667h-51.2V503.04h51.2v78.592h44.8v-78.592h44.8v-19.626667c44.8 26.197333 70.4 65.493333 89.6 104.789334l38.4-6.528c0-13.098667-6.4-19.626667-6.4-26.197334h89.6v-32.725333c-12.8-19.626667-19.2-39.296-32-58.922667h70.4v-6.613333z m-185.6-124.416h38.4c6.4 26.197333 6.4 52.394667 6.4 85.12H512v-85.12z m83.2 0h57.6v85.12h-51.2c0-32.725333 0-58.922667-6.4-85.12z m-19.2 124.416c12.8 13.098667 19.2 32.725333 32 52.394667h-64l-51.2-52.394667h83.2z m-64 419.157333c-211.2 0-396.8-130.986667-467.2-333.994666l64-19.626667c64 163.712 224 281.6 403.2 281.6 211.2 0 384-150.613333 416-353.621333l-57.6 39.296-38.4-58.922667 121.6-78.592c6.4-6.570667 12.8-6.570667 19.2-6.570667s12.8 0 19.2 6.570667c12.8 6.528 19.2 19.626667 19.2 32.725333-6.4 268.458667-230.4 491.136-499.2 491.136z m0-936.490666c-211.2 0-384 150.613333-416 353.621333l57.6-39.296 38.4 58.922667-115.2 78.592a39.850667 39.850667 0 0 1-38.4 0c-12.8-6.570667-19.2-13.098667-19.2-26.197334 0-275.072 217.6-491.178667 492.8-491.178666 211.2 0 396.8 130.986667 467.2 333.994666l-64 19.626667c-64-170.24-224-288.085333-403.2-288.085333z"  horiz-adv-x="1024" />

    
    <glyph glyph-name="jiantou4" unicode="&#58904;" d="M231.830003 845.926976l49.071456 49.085338 511.265997-511.121408-49.071456-49.085338-511.265997 511.121408ZM743.17313 432.860989l49.064515-49.092278-511.338291-511.049114-49.064515 49.09227799 511.338291 511.04911401Z"  horiz-adv-x="1024" />

    
    <glyph glyph-name="yuyue1" unicode="&#59016;" d="M712.137387 190.32064h66.00704a27.798187 27.798187 0 1 0 0-55.589547h-93.805227a27.818667 27.818667 0 0 0-27.026773 34.304 27.900587 27.900587 0 0 0-0.764587 6.51264V267.61216a27.79136 27.79136 0 1 0 55.589547 0v-77.29152z m52.114773 228.43392a27.798187 27.798187 0 0 0-27.798187 27.798187V710.601387a6.94272 6.94272 0 0 1-6.94272 6.94272h-564.565333a6.949547 6.949547 0 0 1-6.949547-6.94272v-653.175467a6.9632 6.9632 0 0 1 6.949547-6.949547h251.016533a27.798187 27.798187 0 0 0 0-55.589546H130.19136A27.798187 27.798187 0 0 0 102.4 22.685013V745.335467A27.798187 27.798187 0 0 0 130.19136 773.12h634.0608a27.798187 27.798187 0 0 0 27.798187-27.798187v-298.769066a27.798187 27.798187 0 0 0-27.798187-27.798187zM230.058667 594.20672h409.115306a27.798187 27.798187 0 1 0 0-55.589547H230.058667a27.798187 27.798187 0 0 0 0 55.589547z m4.369066-178.93376h231.273814a27.79136 27.79136 0 1 0 0-55.58272H234.427733a27.79136 27.79136 0 1 0 0 55.58272z m0-178.91328h184.128854a27.805013 27.805013 0 0 0 0-55.6032H234.427733a27.805013 27.805013 0 0 0 0 55.6032zM684.3392-5.12A196.3008 196.3008 0 1 0 880.64 191.187627 196.293973 196.293973 0 0 0 684.3392-5.12z m0 48.64a147.6608 147.6608 0 1 1-147.653973 147.6608 147.667627 147.667627 0 0 1 147.653973-147.6608z m0 0"  horiz-adv-x="1024" />

    


  </font>
</defs>
</svg>
